<?xml version="1.0" standalone="no"?>
<!DOCTYPE svg PUBLIC "-//W3C//DTD SVG 20010904//EN"
 "http://www.w3.org/TR/2001/REC-SVG-20010904/DTD/svg10.dtd">
<svg version="1.0" xmlns="http://www.w3.org/2000/svg"
 width="626.000000pt" height="618.000000pt" viewBox="0 0 626.000000 618.000000"
 preserveAspectRatio="xMidYMid meet">

<g transform="translate(0.000000,618.000000) scale(0.100000,-0.100000)"
fill="#000000" stroke="none">
<path d="M2683 5860 c-171 -45 -251 -109 -493 -395 -145 -171 -194 -219 -248
-240 -66 -27 -87 -84 -108 -287 -13 -136 -13 -150 2 -180 9 -18 22 -40 29 -48
7 -8 16 -33 19 -55 11 -63 56 -192 72 -205 8 -7 14 -29 14 -49 0 -71 114 -192
165 -176 67 22 70 21 98 -45 34 -77 34 -90 1 -56 -27 26 -48 33 -58 18 -2 -4
9 -14 25 -21 45 -20 83 -83 76 -125 -3 -18 -1 -38 4 -43 5 -5 11 -33 13 -62 1
-29 8 -56 14 -60 6 -4 9 -17 5 -29 -3 -13 -10 -19 -17 -15 -6 4 -5 -1 3 -10 7
-9 19 -17 27 -17 7 0 20 -25 29 -57 28 -95 119 -206 265 -322 l95 -76 -44 -44
-44 -43 -121 5 c-96 4 -137 11 -201 32 -83 29 -206 43 -268 31 -60 -11 -149
-77 -205 -152 -55 -74 -134 -225 -176 -338 -29 -77 -79 -150 -191 -280 -90
-105 -105 -134 -86 -165 7 -12 14 -10 36 8 72 56 179 2 288 -144 109 -147 178
-322 161 -410 -3 -19 -24 -58 -45 -86 -45 -61 -48 -76 -15 -85 35 -8 42 -2 85
84 22 42 53 95 71 117 46 57 79 116 110 198 l28 71 6 -44 c10 -81 21 -470 21
-750 0 -242 2 -283 19 -339 18 -58 18 -74 8 -176 -7 -62 -12 -198 -12 -304 l0
-191 1065 0 1065 0 -5 53 c-7 67 -23 456 -29 702 -3 105 -12 264 -20 355 -37
415 -54 642 -50 649 2 2 25 -43 53 -100 34 -71 53 -126 60 -174 11 -78 35
-108 80 -103 25 3 25 5 27 83 3 96 36 210 100 340 73 147 140 224 229 261 l39
16 23 -28 c22 -28 23 -28 37 -9 28 37 24 60 -20 106 -19 19 -66 97 -104 172
-39 78 -106 188 -157 258 -48 66 -126 184 -173 262 l-85 140 -80 28 c-91 32
-140 35 -239 15 -38 -8 -114 -18 -170 -21 l-101 -7 -42 31 c-62 45 -101 38
-68 -13 14 -22 15 -28 2 -53 -8 -15 -40 -105 -70 -199 -62 -194 -82 -236 -129
-281 -41 -39 -129 -81 -189 -89 -85 -12 -214 34 -290 103 -66 60 -86 113 -114
300 -14 91 -24 167 -22 169 2 2 51 -21 109 -51 58 -29 123 -57 144 -61 55 -10
140 10 201 48 50 32 271 226 272 240 1 4 27 42 59 85 33 43 70 98 85 123 27
48 57 176 57 243 0 23 5 76 12 118 10 65 14 74 23 56 5 -11 16 -22 23 -25 11
-4 12 0 2 19 -7 12 -17 50 -22 83 -5 34 -11 75 -14 92 -6 35 26 111 51 121 19
7 19 23 1 23 -19 0 -56 -47 -56 -71 0 -11 -5 -19 -11 -19 -15 0 -2 94 21 148
14 31 25 42 41 42 21 0 21 3 15 69 l-7 68 33 28 c67 56 72 92 28 201 -24 62
-29 87 -29 156 1 87 -19 186 -51 247 -26 51 -122 140 -223 205 -80 53 -86 59
-92 99 -14 81 -93 214 -134 224 -14 3 -32 10 -38 15 -7 6 -19 8 -27 5 -8 -3
-53 8 -101 24 -186 62 -321 73 -452 39z m646 -860 c17 -81 51 -141 118 -209
35 -35 63 -67 63 -72 0 -5 20 -31 45 -59 25 -28 47 -63 51 -78 3 -15 14 -43
25 -63 10 -20 19 -51 19 -68 0 -18 7 -46 16 -64 25 -47 14 -368 -15 -482 -36
-139 -134 -305 -179 -305 -9 0 -30 21 -47 48 -16 26 -45 64 -64 85 -41 45 -44
45 -290 16 -287 -33 -387 -60 -431 -117 -16 -19 -20 -40 -20 -93 0 -37 -5 -71
-11 -74 -17 -11 -89 45 -147 115 -72 87 -74 93 -112 255 -44 192 -64 260 -106
351 -39 86 -70 220 -84 364 -8 81 -7 97 6 107 11 8 12 13 3 19 -9 5 -7 11 6
21 22 15 52 17 57 4 2 -6 48 5 103 23 136 46 189 52 272 31 78 -20 172 -14
243 15 25 10 63 21 85 25 22 4 72 22 110 41 165 82 187 96 229 156 22 31 42
58 43 58 1 0 6 -22 12 -50z m-999 -1220 c0 -5 -5 -10 -11 -10 -5 0 -7 5 -4 10
3 6 8 10 11 10 2 0 4 -4 4 -10z m990 -74 c11 -31 -6 -216 -26 -278 -17 -52
-67 -102 -94 -95 -24 6 -65 -18 -65 -39 0 -38 -127 -66 -157 -36 -9 9 -6 12
12 12 22 1 21 2 -9 16 -19 8 -41 12 -48 9 -8 -2 -11 0 -8 5 3 6 -3 10 -15 10
-30 0 -97 46 -113 77 -34 69 -89 245 -80 254 6 6 111 24 234 40 123 16 238 34
254 38 17 5 47 10 68 10 31 1 39 -3 47 -23z"/>
<path d="M3252 4510 c-80 -21 -209 -84 -262 -129 -35 -29 -35 -29 -16 -50 34
-38 79 -28 181 39 105 69 149 86 242 95 53 5 81 2 131 -13 34 -11 62 -17 62
-13 0 3 -28 25 -63 49 -59 40 -66 42 -132 41 -39 0 -103 -9 -143 -19z"/>
<path d="M2411 4376 c-56 -11 -70 -19 -109 -60 -24 -26 -42 -49 -39 -52 3 -3
24 7 47 22 36 24 55 29 129 32 81 4 92 2 171 -30 103 -43 137 -51 145 -38 11
17 -52 87 -98 109 -55 27 -163 34 -246 17z"/>
<path d="M3210 4334 c-70 -27 -103 -54 -115 -94 -7 -21 -3 -20 27 13 43 45 58
47 58 8 0 -43 43 -74 93 -68 43 6 77 31 77 57 0 13 -6 16 -23 13 -25 -5 -57
19 -57 42 0 21 65 36 103 23 18 -6 36 -15 42 -19 16 -15 28 -10 14 7 -41 49
-120 56 -219 18z"/>
<path d="M3424 4282 c4 -7 2 -21 -5 -30 -12 -15 -11 -15 6 0 16 15 17 20 6 30
-11 11 -13 10 -7 0z"/>
<path d="M2453 4226 c-17 -8 -36 -24 -43 -35 -13 -26 -9 -26 32 -1 49 30 56
26 51 -23 -5 -39 -2 -46 23 -66 36 -29 99 -24 126 9 24 30 23 38 -7 32 -30 -5
-55 13 -55 40 0 26 19 31 76 18 31 -7 61 -23 83 -43 l34 -32 -25 40 c-31 49
-73 66 -183 71 -56 3 -90 0 -112 -10z"/>
<path d="M3369 4203 c-13 -16 -12 -17 4 -4 9 7 17 15 17 17 0 8 -8 3 -21 -13z"/>
<path d="M2396 4131 c-3 -5 2 -15 12 -22 15 -12 16 -12 5 2 -7 9 -10 19 -6 22
3 4 4 7 0 7 -3 0 -8 -4 -11 -9z"/>
<path d="M3214 3677 c-12 -7 -34 -27 -50 -46 -61 -73 -196 -95 -283 -46 -35
20 -49 23 -75 16 -35 -10 -36 -9 74 -42 91 -27 173 -29 217 -6 41 22 97 71
124 108 23 32 23 33 -7 16z"/>
<path d="M3028 3433 c-41 -5 -49 -21 -19 -40 25 -15 52 -7 74 23 20 27 26 25
-55 17z"/>
<path d="M3717 3959 c7 -7 15 -10 18 -7 3 3 -2 9 -12 12 -14 6 -15 5 -6 -5z"/>
</g>
</svg>
